<svg display="none" xmlns="http://www.w3.org/2000/svg">

<symbol width="41" height="41" viewBox="0 0 41 41" id="logo-img">
<circle cx="20.5" cy="20.5" r="20.5" fill="#458FF6"/>
<path d="M19.344 15.244H13.312V12.488H28.782V15.244H22.724V31H19.344V15.244Z" fill="white"/>
</symbol>

<symbol width="41" height="41" viewBox="0 0 41 41" id="logo-img-white">
<circle cx="20.5" cy="20.5" r="20.5" fill="#ffffff"/>
<path d="M19.344 15.244H13.312V12.488H28.782V15.244H22.724V31H19.344V15.244Z" fill="#458FF6"/>
</symbol>


<symbol viewBox="0 0 29 18" id="arrow-left">
<path d="M26.4668 7.33418L5.42092 7.33418L10.0446 2.71046C10.6824 2.0727 10.6824 1.11607 10.0446 0.478316C9.40689 -0.159439 8.45026 -0.159439 7.8125 0.478316L0.478316 7.8125C-0.159439 8.45026 -0.159439 9.40689 0.478316 10.0446L7.8125 17.3788C8.45026 18.0166 9.40689 18.0166 10.0446 17.3788C10.6824 16.7411 10.6824 15.7844 10.0446 15.1467L5.42092 10.523L26.4668 10.523C27.264 10.523 28.0612 9.88521 28.0612 8.92857C28.0612 7.97194 27.264 7.33418 26.4668 7.33418Z"/>
</symbol>



<symbol viewBox="0 0 29 19" id="arrow-right">
<path d="M1.73745 11.2373L22.7834 11.2373L18.1596 15.8611C17.5219 16.4988 17.5219 17.4555 18.1596 18.0932C18.7974 18.731 19.754 18.731 20.3918 18.0932L27.726 10.759C28.3637 10.1213 28.3637 9.16464 27.726 8.52689L20.3918 1.1927C19.754 0.55495 18.7974 0.55495 18.1596 1.1927C17.5219 1.83046 17.5219 2.78709 18.1596 3.42485L22.7834 8.04857L1.73745 8.04857C0.940251 8.04857 0.143058 8.68633 0.143058 9.64296C0.143058 10.5996 0.940251 11.2373 1.73745 11.2373Z"/>
</symbol>



</svg>
